<svg width="2000" height="3274" viewBox="0 0 2000 3274" fill="none" xmlns="http://www.w3.org/2000/svg">
<g clip-path="url(#clip0_1_2)">
<path d="M2000 0H0V3274H2000V0Z" fill="#171923"/>
<path d="M-337.207 -259.779C-268.273 -530.134 8.58875 -691.767 277.906 -618.883L2060.12 -136.567C2380.15 -49.9603 2491.87 346.875 2264.04 587.724C2232.53 621.033 2195.99 649.192 2155.75 671.172L1712.2 913.467C1602.1 973.612 1473.41 990.167 1351.66 959.848L-40.8802 613.034C-309.893 546.036 -473.041 272.956 -404.545 4.31915L-337.207 -259.779Z" fill="#171923"/>
<path d="M148.926 244.641C248.84 547.515 -22.9251 836.838 -339.338 764.454L-1573.74 482.075C-1743.69 443.195 -1873.25 306.188 -1899.49 137.615L-1942.94 -141.603C-1983.61 -402.918 -1766.05 -629.392 -1497.21 -605.616L-371.79 -506.085C-201.702 -491.047 -56.1333 -376.947 -3.50709 -217.425L148.926 244.641Z" fill="#1A202C" fill-opacity="0.99"/>
<path d="M-910.433 891.67C-940.256 805.015 -897.837 708.274 -813.82 671.327L-279.211 436.232C-190.913 397.403 -90.0345 438.983 -55.0862 528.613L173.481 1114.8C208.986 1205.86 162.459 1310.37 70.9634 1345.07L-497.218 1560.55C-586.545 1594.43 -684.352 1548.58 -715.439 1458.25L-910.433 891.67Z" fill="#718096" fill-opacity="0.2"/>
<path d="M2653.7 1914.18C2768.51 1929.63 2854.93 2035.83 2846.74 2151.38L2799.56 2816.48C2790.79 2939.99 2678.23 3022.38 2556.94 2994.07L1445.24 2734.57C1311.98 2703.48 1235.1 2555.69 1288.64 2433.59L1521.19 1903.29C1556.29 1823.25 1639 1777.6 1727.38 1789.49L2653.7 1914.18Z" fill="#2D3748" fill-opacity="0.35"/>
<path d="M3050.87 972.885C3244.1 1169.34 3161.78 1506.48 2902.97 1578.6L1893.3 1859.96C1754.3 1898.69 1605.57 1844.16 1519.38 1722.86L1376.61 1521.94C1242.99 1333.91 1310.94 1068.05 1515.81 977.234L2373.46 597.075C2503.07 539.617 2654.31 569.697 2756.08 673.169L3050.87 972.885Z" fill="#1A202C" fill-opacity="0.99"/>
<path d="M1650.06 670.986C1557.55 619.317 1520.04 500.138 1566.29 404.797L1832.5 -143.994C1881.95 -245.898 2005.81 -278.04 2099.48 -213.278L2958.03 380.325C3060.94 451.468 3076.19 602.751 2989.09 688.424L2610.83 1060.52C2553.73 1116.69 2467.79 1127.67 2396.56 1087.9L1650.06 670.986Z" fill="#2D3748" fill-opacity="0.35"/>
<path d="M1377.55 2624.76C1655.46 2808.66 1608.98 3218.44 1294.04 3360.99L65.3922 3917.14C-103.765 3993.71 -301.153 3964.31 -430.876 3843.23L-645.746 3642.67C-846.841 3454.98 -806.354 3131.14 -562.81 2979.18L456.72 2343.04C610.801 2246.89 807.188 2247.36 953.564 2344.22L1377.55 2624.76Z" fill="#F7FAFC"/>
<path d="M1706.75 2993.75C1752.91 2864.83 1896.85 2780.79 2010.83 2816.17L2311.78 2909.61C2425.98 2945.07 2456.56 3083.79 2376.3 3202.33L2349.04 3242.63L2235.73 3422.41C2186.76 3500.15 2102.02 3552.02 2019.4 3554.85L1745.71 3564.24C1616.61 3568.69 1541.68 3454.62 1588.26 3324.56L1706.75 2993.75Z" fill="#CBD5E0" fill-opacity="0.3"/>
<path d="M2525.8 1404.49C2589.24 1475.68 2592.51 1590.57 2533.24 1666.06L2296.08 1968.13C2233.91 2047.3 2126.54 2053.58 2057.35 1982.08L1781.1 1696.61C1710.68 1623.83 1707.68 1499.42 1774.5 1422.58L2035.34 1122.62C2100.53 1047.64 2207.16 1046.97 2273.23 1121.11L2525.8 1404.49Z" fill="#CBD5E0" fill-opacity="0.2"/>
<path d="M2486.18 -956.899C2753.51 -1023.73 3002.26 -781.744 2933.1 -522.13L2663.29 490.685C2626.14 630.125 2503.7 730.624 2355.44 743.355L2109.86 764.444C1880.04 784.184 1685.41 590.739 1711.1 368.119L1818.64 -563.817C1834.89 -704.663 1937.54 -819.731 2078.34 -854.934L2486.18 -956.899Z" fill="#1A202C" fill-opacity="0.99"/>
<path d="M-553.124 1020.81C-644.063 992.123 -705.675 895.095 -693.389 799.903L-644.248 419.022C-631.364 319.185 -542.337 258.84 -446.302 284.848L-62.8678 388.71C34.885 415.189 101.131 520.529 83.0528 620.744L12.4958 1011.94C-5.13539 1109.72 -96.3955 1164.87 -191.105 1135L-553.124 1020.81Z" fill="#CBD5E0" fill-opacity="0.2"/>
</g>
<defs>
<clipPath id="clip0_1_2">
<rect width="2000" height="3274" fill="white"/>
</clipPath>
</defs>
</svg>
